<?xml version="1.0" encoding="UTF-8" standalone="no"?>
<!-- Created with Inkscape (http://www.inkscape.org/) -->

<svg
   width="512"
   height="512"
   viewBox="0 0 512 512"
   version="1.1"
   id="svg1"
   inkscape:version="1.4 (86a8ad7, 2024-10-11)"
   sodipodi:docname="plus.svg"
   xmlns:inkscape="http://www.inkscape.org/namespaces/inkscape"
   xmlns:sodipodi="http://sodipodi.sourceforge.net/DTD/sodipodi-0.dtd"
   xmlns="http://www.w3.org/2000/svg"
   xmlns:svg="http://www.w3.org/2000/svg">
  <sodipodi:namedview
     id="namedview1"
     pagecolor="#ffffff"
     bordercolor="#000000"
     borderopacity="0.25"
     inkscape:showpageshadow="2"
     inkscape:pageopacity="0.0"
     inkscape:pagecheckerboard="0"
     inkscape:deskcolor="#d1d1d1"
     inkscape:document-units="px"
     showgrid="true"
     inkscape:zoom="1.1255704"
     inkscape:cx="214.11367"
     inkscape:cy="193.23536"
     inkscape:window-width="1920"
     inkscape:window-height="1017"
     inkscape:window-x="-8"
     inkscape:window-y="-8"
     inkscape:window-maximized="1"
     inkscape:current-layer="layer1">
    <inkscape:grid
       id="grid1"
       units="px"
       originx="0"
       originy="0"
       spacingx="1"
       spacingy="1"
       empcolor="#0099e5"
       empopacity="0.30196078"
       color="#0099e5"
       opacity="0.14901961"
       empspacing="64"
       enabled="true"
       visible="true" />
  </sodipodi:namedview>
  <defs
     id="defs1" />
  <g
     inkscape:label="Calque 1"
     inkscape:groupmode="layer"
     id="layer1">
    <path
       d="M 255.99999,0 C 220.65379,0 192,28.65378 192,64 V 192 H 64 C 28.653781,192 0,220.65378 0,255.99999 v 32 C 0,305.67311 14.32688,320 32,320 h 32 128 v 127.99999 32 C 192,497.67311 206.32687,512 223.99999,512 h 32 c 35.34622,0 64,-28.65379 64,-64.00001 V 320 H 448 480 c 17.67311,0 32,-14.32689 32,-32.00001 v -32 C 512,220.65378 483.34621,192 448,192 H 319.99999 V 64 32 c 0,-17.673122 -14.32688,-32 -32,-32 z"
       style="stroke:#1565c0;stroke-width:0;stroke-linejoin:round;stroke-opacity:0"
       id="path8" />
  </g>
</svg>
